<?xml version="1.0" encoding="UTF-8"?>
<svg width="10px" height="7px" viewBox="0 0 10 7" version="1.1" xmlns="http://www.w3.org/2000/svg" xmlns:xlink="http://www.w3.org/1999/xlink">
    <!-- Generator: Sketch 58 (84663) - https://sketch.com -->
    <g id="icon/arrow-down" stroke="none" stroke-width="1" fill="none" fill-rule="evenodd">
        <path d="M2.6114,-0.4375 C2.95591112,-0.754456992 3.48678262,-0.751335131 3.82754223,-0.430348313 L7.22725068,2.77208994 C7.62926431,3.15077648 7.64817465,3.783659 7.26948812,4.18567262 C7.2558327,4.20016921 7.24174727,4.21425464 7.22725068,4.22791006 L3.82754223,7.43034831 C3.48678262,7.75133513 2.95591112,7.75445699 2.6114,7.4375 C2.29780142,7.14898315 2.27746866,6.66087215 2.56598551,6.34727357 C2.57885189,6.33328867 2.59223052,6.31978388 2.60609405,6.30678683 L5.6,3.5 L5.6,3.5 L2.60609405,0.693213173 C2.29521699,0.401765929 2.27946601,-0.0865143954 2.57091326,-0.397391456 C2.58391032,-0.411254984 2.59741511,-0.424633623 2.6114,-0.4375 Z" id="Path" fill="#3B3B3B" fill-rule="nonzero" transform="translate(5.000000, 3.500000) rotate(90.000000) translate(-5.000000, -3.500000) "></path>
    </g>
</svg>