<?xml version="1.0" encoding="UTF-8"?>
<svg width="24px" height="24px" viewBox="0 0 24 24" version="1.1" xmlns="http://www.w3.org/2000/svg" xmlns:xlink="http://www.w3.org/1999/xlink">
    <!-- Generator: Sketch 58 (84663) - https://sketch.com -->

        <g id="iconmonstr-share-1"  fill-rule="nonzero">
            <path d="M5,7 C7.761,7 10,9.239 10,12 C10,14.761 7.761,17 5,17 C2.239,17 0,14.761 0,12 C0,9.239 2.239,7 5,7 Z M16.122,19.065 C16.049,19.366 16,19.676 16,20 C16,22.209 17.791,24 20,24 C22.209,24 24,22.209 24,20 C24,17.791 22.209,16 20,16 C18.835,16 17.796,16.506 17.065,17.301 L11.577,14.374 C11.347,15.01 11.028,15.603 10.634,16.138 L16.122,19.065 L16.122,19.065 Z M24,4 C24,1.791 22.209,-1.77635684e-15 20,-1.77635684e-15 C17.791,-1.77635684e-15 16,1.791 16,4 C16,4.324 16.049,4.634 16.122,4.935 L10.634,7.862 C11.029,8.397 11.347,8.989 11.577,9.626 L17.065,6.699 C17.796,7.494 18.835,8 20,8 C22.209,8 24,6.209 24,4 Z" id="Shape"></path>
        </g>

</svg>